<svg width="24" height="24" viewBox="0 0 24 24" fill="none" xmlns="http://www.w3.org/2000/svg">
<path fill-rule="evenodd" clip-rule="evenodd" d="M7.9999 6.46589C7.99678 6.85069 8.13973 7.22236 8.3999 7.50589L12.6519 11.9999L8.4049 16.4939C7.86471 17.0801 7.86471 17.9827 8.4049 18.5689C8.65682 18.8438 9.01255 19.0003 9.3854 19.0003C9.75825 19.0003 10.114 18.8438 10.3659 18.5689L15.5929 13.0369C16.1356 12.4528 16.1356 11.549 15.5929 10.9649L10.3659 5.43089C10.114 5.15602 9.75825 4.99951 9.3854 4.99951C9.01255 4.99951 8.65682 5.15602 8.4049 5.43089C8.14322 5.71185 7.9984 6.08195 7.9999 6.46589Z" fill="#7A869A"/>
</svg>
