<svg width="24" height="24" viewBox="0 0 24 24" fill="none" xmlns="http://www.w3.org/2000/svg">
<path fill-rule="evenodd" clip-rule="evenodd" d="M5.805 5.09998H18.2C18.6405 5.10324 18.9967 5.45951 19 5.89998V14.593C18.9967 15.0334 18.6405 15.3897 18.2 15.393H5.8C5.35931 15.3902 5.00273 15.0337 5 14.593V5.89998C5.00329 5.45757 5.36258 5.10051 5.805 5.09998ZM15.589 13.789C15.8595 12.9253 16.5362 12.249 17.4 11.979L17.391 8.51798C16.527 8.24824 15.8502 7.57185 15.58 6.70798H8.421C8.15014 7.57181 7.47313 8.24806 6.609 8.51798V11.979C7.47313 12.2489 8.15014 12.9251 8.421 13.789H15.589ZM12 8.09998C10.9176 8.20917 10.121 9.16349 10.207 10.248C10.1187 11.334 10.9159 12.2908 12 12.4C13.0841 12.2908 13.8813 11.334 13.793 10.248C13.879 9.16349 13.0824 8.20917 12 8.09998ZM5.26624 18.6347C5.09553 18.464 4.99974 18.2324 5 17.991V17.291H18.999V17.991C18.9993 18.2324 18.9035 18.464 18.7328 18.6347C18.562 18.8055 18.3304 18.9012 18.089 18.901H5.91C5.66857 18.9012 5.43696 18.8055 5.26624 18.6347Z" fill="#C1C7D0"/>
</svg>
